
<!-- <svg width="828" height="128" 
     xmlns="http://www.w3.org/2000/svg"
     xmlns:xlink="http://www.w3.org/1999/xlink">
  <rect width="12" height="12" x="16" y="0" fill="#ebedf0"/>
</svg> -->

<svg width="828" height="128" 
     xmlns="http://www.w3.org/2000/svg"
     xmlns:xlink="http://www.w3.org/1999/xlink">
  <g transform="translate(10, 20)" data-hydro-click="{&quot;event_type&quot;:&quot;user_profile.click&quot;,&quot;payload&quot;:{&quot;profile_user_id&quot;:20827588,&quot;target&quot;:&quot;CONTRIBUTION_CALENDAR_SQUARE&quot;,&quot;user_id&quot;:null,&quot;client_id&quot;:null,&quot;originating_request_id&quot;:&quot;C23B:6B95:F9E07:1796A8:5CFBC988&quot;,&quot;originating_url&quot;:&quot;https://github.com/users/y-zumi/contributions&quot;,&quot;referrer&quot;:null}}" data-hydro-click-hmac="1661f67bcedb2de3a0c8949368c49c4e3f96313e8bf37a796191ffbee70661cf">
      <g transform="translate(0, 0)">
          <rect class="day" width="12" height="12" x="16" y="0" fill="#ebedf0" data-count="0" data-date="2018-06-03"/>
          <rect class="day" width="12" height="12" x="16" y="15" fill="#ebedf0" data-count="0" data-date="2018-06-04"/>
          <rect class="day" width="12" height="12" x="16" y="30" fill="#ebedf0" data-count="0" data-date="2018-06-05"/>
          <rect class="day" width="12" height="12" x="16" y="45" fill="#ebedf0" data-count="0" data-date="2018-06-06"/>
          <rect class="day" width="12" height="12" x="16" y="60" fill="#ebedf0" data-count="0" data-date="2018-06-07"/>
          <rect class="day" width="12" height="12" x="16" y="75" fill="#ebedf0" data-count="0" data-date="2018-06-08"/>
          <rect class="day" width="12" height="12" x="16" y="90" fill="#ebedf0" data-count="0" data-date="2018-06-09"/>
      </g>
      <g transform="translate(16, 0)">
          <rect class="day" width="12" height="12" x="15" y="0" fill="#ebedf0" data-count="0" data-date="2018-06-10"/>
          <rect class="day" width="12" height="12" x="15" y="15" fill="#ebedf0" data-count="0" data-date="2018-06-11"/>
          <rect class="day" width="12" height="12" x="15" y="30" fill="#ebedf0" data-count="0" data-date="2018-06-12"/>
          <rect class="day" width="12" height="12" x="15" y="45" fill="#ebedf0" data-count="0" data-date="2018-06-13"/>
          <rect class="day" width="12" height="12" x="15" y="60" fill="#ebedf0" data-count="0" data-date="2018-06-14"/>
          <rect class="day" width="12" height="12" x="15" y="75" fill="#ebedf0" data-count="0" data-date="2018-06-15"/>
          <rect class="day" width="12" height="12" x="15" y="90" fill="#ebedf0" data-count="0" data-date="2018-06-16"/>
      </g>
      <g transform="translate(32, 0)">
          <rect class="day" width="12" height="12" x="14" y="0" fill="#ebedf0" data-count="0" data-date="2018-06-17"/>
          <rect class="day" width="12" height="12" x="14" y="15" fill="#ebedf0" data-count="0" data-date="2018-06-18"/>
          <rect class="day" width="12" height="12" x="14" y="30" fill="#ebedf0" data-count="0" data-date="2018-06-19"/>
          <rect class="day" width="12" height="12" x="14" y="45" fill="#ebedf0" data-count="0" data-date="2018-06-20"/>
          <rect class="day" width="12" height="12" x="14" y="60" fill="#ebedf0" data-count="0" data-date="2018-06-21"/>
          <rect class="day" width="12" height="12" x="14" y="75" fill="#ebedf0" data-count="0" data-date="2018-06-22"/>
          <rect class="day" width="12" height="12" x="14" y="90" fill="#ebedf0" data-count="0" data-date="2018-06-23"/>
      </g>
      <g transform="translate(48, 0)">
          <rect class="day" width="12" height="12" x="13" y="0" fill="#ebedf0" data-count="0" data-date="2018-06-24"/>
          <rect class="day" width="12" height="12" x="13" y="15" fill="#ebedf0" data-count="0" data-date="2018-06-25"/>
          <rect class="day" width="12" height="12" x="13" y="30" fill="#ebedf0" data-count="0" data-date="2018-06-26"/>
          <rect class="day" width="12" height="12" x="13" y="45" fill="#ebedf0" data-count="0" data-date="2018-06-27"/>
          <rect class="day" width="12" height="12" x="13" y="60" fill="#ebedf0" data-count="0" data-date="2018-06-28"/>
          <rect class="day" width="12" height="12" x="13" y="75" fill="#ebedf0" data-count="0" data-date="2018-06-29"/>
          <rect class="day" width="12" height="12" x="13" y="90" fill="#ebedf0" data-count="0" data-date="2018-06-30"/>
      </g>
      <g transform="translate(64, 0)">
          <rect class="day" width="12" height="12" x="12" y="0" fill="#ebedf0" data-count="0" data-date="2018-07-01"/>
          <rect class="day" width="12" height="12" x="12" y="15" fill="#ebedf0" data-count="0" data-date="2018-07-02"/>
          <rect class="day" width="12" height="12" x="12" y="30" fill="#ebedf0" data-count="0" data-date="2018-07-03"/>
          <rect class="day" width="12" height="12" x="12" y="45" fill="#ebedf0" data-count="0" data-date="2018-07-04"/>
          <rect class="day" width="12" height="12" x="12" y="60" fill="#ebedf0" data-count="0" data-date="2018-07-05"/>
          <rect class="day" width="12" height="12" x="12" y="75" fill="#ebedf0" data-count="0" data-date="2018-07-06"/>
          <rect class="day" width="12" height="12" x="12" y="90" fill="#ebedf0" data-count="0" data-date="2018-07-07"/>
      </g>
      <g transform="translate(80, 0)">
          <rect class="day" width="12" height="12" x="11" y="0" fill="#ebedf0" data-count="0" data-date="2018-07-08"/>
          <rect class="day" width="12" height="12" x="11" y="15" fill="#ebedf0" data-count="0" data-date="2018-07-09"/>
          <rect class="day" width="12" height="12" x="11" y="30" fill="#ebedf0" data-count="0" data-date="2018-07-10"/>
          <rect class="day" width="12" height="12" x="11" y="45" fill="#ebedf0" data-count="0" data-date="2018-07-11"/>
          <rect class="day" width="12" height="12" x="11" y="60" fill="#ebedf0" data-count="0" data-date="2018-07-12"/>
          <rect class="day" width="12" height="12" x="11" y="75" fill="#ebedf0" data-count="0" data-date="2018-07-13"/>
          <rect class="day" width="12" height="12" x="11" y="90" fill="#ebedf0" data-count="0" data-date="2018-07-14"/>
      </g>
      <g transform="translate(96, 0)">
          <rect class="day" width="12" height="12" x="10" y="0" fill="#ebedf0" data-count="0" data-date="2018-07-15"/>
          <rect class="day" width="12" height="12" x="10" y="15" fill="#ebedf0" data-count="0" data-date="2018-07-16"/>
          <rect class="day" width="12" height="12" x="10" y="30" fill="#ebedf0" data-count="0" data-date="2018-07-17"/>
          <rect class="day" width="12" height="12" x="10" y="45" fill="#ebedf0" data-count="0" data-date="2018-07-18"/>
          <rect class="day" width="12" height="12" x="10" y="60" fill="#ebedf0" data-count="0" data-date="2018-07-19"/>
          <rect class="day" width="12" height="12" x="10" y="75" fill="#ebedf0" data-count="0" data-date="2018-07-20"/>
          <rect class="day" width="12" height="12" x="10" y="90" fill="#ebedf0" data-count="0" data-date="2018-07-21"/>
      </g>
      <g transform="translate(112, 0)">
          <rect class="day" width="12" height="12" x="9" y="0" fill="#ebedf0" data-count="0" data-date="2018-07-22"/>
          <rect class="day" width="12" height="12" x="9" y="15" fill="#ebedf0" data-count="0" data-date="2018-07-23"/>
          <rect class="day" width="12" height="12" x="9" y="30" fill="#ebedf0" data-count="0" data-date="2018-07-24"/>
          <rect class="day" width="12" height="12" x="9" y="45" fill="#ebedf0" data-count="0" data-date="2018-07-25"/>
          <rect class="day" width="12" height="12" x="9" y="60" fill="#ebedf0" data-count="0" data-date="2018-07-26"/>
          <rect class="day" width="12" height="12" x="9" y="75" fill="#ebedf0" data-count="0" data-date="2018-07-27"/>
          <rect class="day" width="12" height="12" x="9" y="90" fill="#ebedf0" data-count="0" data-date="2018-07-28"/>
      </g>
      <g transform="translate(128, 0)">
          <rect class="day" width="12" height="12" x="8" y="0" fill="#ebedf0" data-count="0" data-date="2018-07-29"/>
          <rect class="day" width="12" height="12" x="8" y="15" fill="#ebedf0" data-count="0" data-date="2018-07-30"/>
          <rect class="day" width="12" height="12" x="8" y="30" fill="#ebedf0" data-count="0" data-date="2018-07-31"/>
          <rect class="day" width="12" height="12" x="8" y="45" fill="#ebedf0" data-count="0" data-date="2018-08-01"/>
          <rect class="day" width="12" height="12" x="8" y="60" fill="#ebedf0" data-count="0" data-date="2018-08-02"/>
          <rect class="day" width="12" height="12" x="8" y="75" fill="#ebedf0" data-count="0" data-date="2018-08-03"/>
          <rect class="day" width="12" height="12" x="8" y="90" fill="#ebedf0" data-count="0" data-date="2018-08-04"/>
      </g>
      <g transform="translate(144, 0)">
          <rect class="day" width="12" height="12" x="7" y="0" fill="#ebedf0" data-count="0" data-date="2018-08-05"/>
          <rect class="day" width="12" height="12" x="7" y="15" fill="#ebedf0" data-count="0" data-date="2018-08-06"/>
          <rect class="day" width="12" height="12" x="7" y="30" fill="#ebedf0" data-count="0" data-date="2018-08-07"/>
          <rect class="day" width="12" height="12" x="7" y="45" fill="#ebedf0" data-count="0" data-date="2018-08-08"/>
          <rect class="day" width="12" height="12" x="7" y="60" fill="#ebedf0" data-count="0" data-date="2018-08-09"/>
          <rect class="day" width="12" height="12" x="7" y="75" fill="#ebedf0" data-count="0" data-date="2018-08-10"/>
          <rect class="day" width="12" height="12" x="7" y="90" fill="#ebedf0" data-count="0" data-date="2018-08-11"/>
      </g>
      <g transform="translate(160, 0)">
          <rect class="day" width="12" height="12" x="6" y="0" fill="#ebedf0" data-count="0" data-date="2018-08-12"/>
          <rect class="day" width="12" height="12" x="6" y="15" fill="#ebedf0" data-count="0" data-date="2018-08-13"/>
          <rect class="day" width="12" height="12" x="6" y="30" fill="#ebedf0" data-count="0" data-date="2018-08-14"/>
          <rect class="day" width="12" height="12" x="6" y="45" fill="#ebedf0" data-count="0" data-date="2018-08-15"/>
          <rect class="day" width="12" height="12" x="6" y="60" fill="#ebedf0" data-count="0" data-date="2018-08-16"/>
          <rect class="day" width="12" height="12" x="6" y="75" fill="#ebedf0" data-count="0" data-date="2018-08-17"/>
          <rect class="day" width="12" height="12" x="6" y="90" fill="#ebedf0" data-count="0" data-date="2018-08-18"/>
      </g>
      <g transform="translate(176, 0)">
          <rect class="day" width="12" height="12" x="5" y="0" fill="#ebedf0" data-count="0" data-date="2018-08-19"/>
          <rect class="day" width="12" height="12" x="5" y="15" fill="#ebedf0" data-count="0" data-date="2018-08-20"/>
          <rect class="day" width="12" height="12" x="5" y="30" fill="#ebedf0" data-count="0" data-date="2018-08-21"/>
          <rect class="day" width="12" height="12" x="5" y="45" fill="#ebedf0" data-count="0" data-date="2018-08-22"/>
          <rect class="day" width="12" height="12" x="5" y="60" fill="#ebedf0" data-count="0" data-date="2018-08-23"/>
          <rect class="day" width="12" height="12" x="5" y="75" fill="#ebedf0" data-count="0" data-date="2018-08-24"/>
          <rect class="day" width="12" height="12" x="5" y="90" fill="#ebedf0" data-count="0" data-date="2018-08-25"/>
      </g>
      <g transform="translate(192, 0)">
          <rect class="day" width="12" height="12" x="4" y="0" fill="#ebedf0" data-count="0" data-date="2018-08-26"/>
          <rect class="day" width="12" height="12" x="4" y="15" fill="#ebedf0" data-count="0" data-date="2018-08-27"/>
          <rect class="day" width="12" height="12" x="4" y="30" fill="#ebedf0" data-count="0" data-date="2018-08-28"/>
          <rect class="day" width="12" height="12" x="4" y="45" fill="#7bc96f" data-count="1" data-date="2018-08-29"/>
          <rect class="day" width="12" height="12" x="4" y="60" fill="#ebedf0" data-count="0" data-date="2018-08-30"/>
          <rect class="day" width="12" height="12" x="4" y="75" fill="#ebedf0" data-count="0" data-date="2018-08-31"/>
          <rect class="day" width="12" height="12" x="4" y="90" fill="#ebedf0" data-count="0" data-date="2018-09-01"/>
      </g>
      <g transform="translate(208, 0)">
          <rect class="day" width="12" height="12" x="3" y="0" fill="#ebedf0" data-count="0" data-date="2018-09-02"/>
          <rect class="day" width="12" height="12" x="3" y="15" fill="#ebedf0" data-count="0" data-date="2018-09-03"/>
          <rect class="day" width="12" height="12" x="3" y="30" fill="#ebedf0" data-count="0" data-date="2018-09-04"/>
          <rect class="day" width="12" height="12" x="3" y="45" fill="#ebedf0" data-count="0" data-date="2018-09-05"/>
          <rect class="day" width="12" height="12" x="3" y="60" fill="#ebedf0" data-count="0" data-date="2018-09-06"/>
          <rect class="day" width="12" height="12" x="3" y="75" fill="#ebedf0" data-count="0" data-date="2018-09-07"/>
          <rect class="day" width="12" height="12" x="3" y="90" fill="#ebedf0" data-count="0" data-date="2018-09-08"/>
      </g>
      <g transform="translate(224, 0)">
          <rect class="day" width="12" height="12" x="2" y="0" fill="#ebedf0" data-count="0" data-date="2018-09-09"/>
          <rect class="day" width="12" height="12" x="2" y="15" fill="#ebedf0" data-count="0" data-date="2018-09-10"/>
          <rect class="day" width="12" height="12" x="2" y="30" fill="#ebedf0" data-count="0" data-date="2018-09-11"/>
          <rect class="day" width="12" height="12" x="2" y="45" fill="#ebedf0" data-count="0" data-date="2018-09-12"/>
          <rect class="day" width="12" height="12" x="2" y="60" fill="#ebedf0" data-count="0" data-date="2018-09-13"/>
          <rect class="day" width="12" height="12" x="2" y="75" fill="#ebedf0" data-count="0" data-date="2018-09-14"/>
          <rect class="day" width="12" height="12" x="2" y="90" fill="#ebedf0" data-count="0" data-date="2018-09-15"/>
      </g>
      <g transform="translate(240, 0)">
          <rect class="day" width="12" height="12" x="1" y="0" fill="#ebedf0" data-count="0" data-date="2018-09-16"/>
          <rect class="day" width="12" height="12" x="1" y="15" fill="#ebedf0" data-count="0" data-date="2018-09-17"/>
          <rect class="day" width="12" height="12" x="1" y="30" fill="#ebedf0" data-count="0" data-date="2018-09-18"/>
          <rect class="day" width="12" height="12" x="1" y="45" fill="#ebedf0" data-count="0" data-date="2018-09-19"/>
          <rect class="day" width="12" height="12" x="1" y="60" fill="#ebedf0" data-count="0" data-date="2018-09-20"/>
          <rect class="day" width="12" height="12" x="1" y="75" fill="#ebedf0" data-count="0" data-date="2018-09-21"/>
          <rect class="day" width="12" height="12" x="1" y="90" fill="#ebedf0" data-count="0" data-date="2018-09-22"/>
      </g>
      <g transform="translate(256, 0)">
          <rect class="day" width="12" height="12" x="0" y="0" fill="#ebedf0" data-count="0" data-date="2018-09-23"/>
          <rect class="day" width="12" height="12" x="0" y="15" fill="#ebedf0" data-count="0" data-date="2018-09-24"/>
          <rect class="day" width="12" height="12" x="0" y="30" fill="#ebedf0" data-count="0" data-date="2018-09-25"/>
          <rect class="day" width="12" height="12" x="0" y="45" fill="#ebedf0" data-count="0" data-date="2018-09-26"/>
          <rect class="day" width="12" height="12" x="0" y="60" fill="#ebedf0" data-count="0" data-date="2018-09-27"/>
          <rect class="day" width="12" height="12" x="0" y="75" fill="#ebedf0" data-count="0" data-date="2018-09-28"/>
          <rect class="day" width="12" height="12" x="0" y="90" fill="#ebedf0" data-count="0" data-date="2018-09-29"/>
      </g>
      <g transform="translate(272, 0)">
          <rect class="day" width="12" height="12" x="-1" y="0" fill="#ebedf0" data-count="0" data-date="2018-09-30"/>
          <rect class="day" width="12" height="12" x="-1" y="15" fill="#ebedf0" data-count="0" data-date="2018-10-01"/>
          <rect class="day" width="12" height="12" x="-1" y="30" fill="#ebedf0" data-count="0" data-date="2018-10-02"/>
          <rect class="day" width="12" height="12" x="-1" y="45" fill="#ebedf0" data-count="0" data-date="2018-10-03"/>
          <rect class="day" width="12" height="12" x="-1" y="60" fill="#ebedf0" data-count="0" data-date="2018-10-04"/>
          <rect class="day" width="12" height="12" x="-1" y="75" fill="#ebedf0" data-count="0" data-date="2018-10-05"/>
          <rect class="day" width="12" height="12" x="-1" y="90" fill="#ebedf0" data-count="0" data-date="2018-10-06"/>
      </g>
      <g transform="translate(288, 0)">
          <rect class="day" width="12" height="12" x="-2" y="0" fill="#ebedf0" data-count="0" data-date="2018-10-07"/>
          <rect class="day" width="12" height="12" x="-2" y="15" fill="#ebedf0" data-count="0" data-date="2018-10-08"/>
          <rect class="day" width="12" height="12" x="-2" y="30" fill="#ebedf0" data-count="0" data-date="2018-10-09"/>
          <rect class="day" width="12" height="12" x="-2" y="45" fill="#ebedf0" data-count="0" data-date="2018-10-10"/>
          <rect class="day" width="12" height="12" x="-2" y="60" fill="#ebedf0" data-count="0" data-date="2018-10-11"/>
          <rect class="day" width="12" height="12" x="-2" y="75" fill="#ebedf0" data-count="0" data-date="2018-10-12"/>
          <rect class="day" width="12" height="12" x="-2" y="90" fill="#ebedf0" data-count="0" data-date="2018-10-13"/>
      </g>
      <g transform="translate(304, 0)">
          <rect class="day" width="12" height="12" x="-3" y="0" fill="#ebedf0" data-count="0" data-date="2018-10-14"/>
          <rect class="day" width="12" height="12" x="-3" y="15" fill="#ebedf0" data-count="0" data-date="2018-10-15"/>
          <rect class="day" width="12" height="12" x="-3" y="30" fill="#ebedf0" data-count="0" data-date="2018-10-16"/>
          <rect class="day" width="12" height="12" x="-3" y="45" fill="#ebedf0" data-count="0" data-date="2018-10-17"/>
          <rect class="day" width="12" height="12" x="-3" y="60" fill="#ebedf0" data-count="0" data-date="2018-10-18"/>
          <rect class="day" width="12" height="12" x="-3" y="75" fill="#ebedf0" data-count="0" data-date="2018-10-19"/>
          <rect class="day" width="12" height="12" x="-3" y="90" fill="#ebedf0" data-count="0" data-date="2018-10-20"/>
      </g>
      <g transform="translate(320, 0)">
          <rect class="day" width="12" height="12" x="-4" y="0" fill="#ebedf0" data-count="0" data-date="2018-10-21"/>
          <rect class="day" width="12" height="12" x="-4" y="15" fill="#ebedf0" data-count="0" data-date="2018-10-22"/>
          <rect class="day" width="12" height="12" x="-4" y="30" fill="#ebedf0" data-count="0" data-date="2018-10-23"/>
          <rect class="day" width="12" height="12" x="-4" y="45" fill="#ebedf0" data-count="0" data-date="2018-10-24"/>
          <rect class="day" width="12" height="12" x="-4" y="60" fill="#ebedf0" data-count="0" data-date="2018-10-25"/>
          <rect class="day" width="12" height="12" x="-4" y="75" fill="#ebedf0" data-count="0" data-date="2018-10-26"/>
          <rect class="day" width="12" height="12" x="-4" y="90" fill="#ebedf0" data-count="0" data-date="2018-10-27"/>
      </g>
      <g transform="translate(336, 0)">
          <rect class="day" width="12" height="12" x="-5" y="0" fill="#ebedf0" data-count="0" data-date="2018-10-28"/>
          <rect class="day" width="12" height="12" x="-5" y="15" fill="#ebedf0" data-count="0" data-date="2018-10-29"/>
          <rect class="day" width="12" height="12" x="-5" y="30" fill="#ebedf0" data-count="0" data-date="2018-10-30"/>
          <rect class="day" width="12" height="12" x="-5" y="45" fill="#ebedf0" data-count="0" data-date="2018-10-31"/>
          <rect class="day" width="12" height="12" x="-5" y="60" fill="#ebedf0" data-count="0" data-date="2018-11-01"/>
          <rect class="day" width="12" height="12" x="-5" y="75" fill="#ebedf0" data-count="0" data-date="2018-11-02"/>
          <rect class="day" width="12" height="12" x="-5" y="90" fill="#ebedf0" data-count="0" data-date="2018-11-03"/>
      </g>
      <g transform="translate(352, 0)">
          <rect class="day" width="12" height="12" x="-6" y="0" fill="#ebedf0" data-count="0" data-date="2018-11-04"/>
          <rect class="day" width="12" height="12" x="-6" y="15" fill="#ebedf0" data-count="0" data-date="2018-11-05"/>
          <rect class="day" width="12" height="12" x="-6" y="30" fill="#ebedf0" data-count="0" data-date="2018-11-06"/>
          <rect class="day" width="12" height="12" x="-6" y="45" fill="#ebedf0" data-count="0" data-date="2018-11-07"/>
          <rect class="day" width="12" height="12" x="-6" y="60" fill="#ebedf0" data-count="0" data-date="2018-11-08"/>
          <rect class="day" width="12" height="12" x="-6" y="75" fill="#ebedf0" data-count="0" data-date="2018-11-09"/>
          <rect class="day" width="12" height="12" x="-6" y="90" fill="#ebedf0" data-count="0" data-date="2018-11-10"/>
      </g>
      <g transform="translate(368, 0)">
          <rect class="day" width="12" height="12" x="-7" y="0" fill="#ebedf0" data-count="0" data-date="2018-11-11"/>
          <rect class="day" width="12" height="12" x="-7" y="15" fill="#ebedf0" data-count="0" data-date="2018-11-12"/>
          <rect class="day" width="12" height="12" x="-7" y="30" fill="#ebedf0" data-count="0" data-date="2018-11-13"/>
          <rect class="day" width="12" height="12" x="-7" y="45" fill="#ebedf0" data-count="0" data-date="2018-11-14"/>
          <rect class="day" width="12" height="12" x="-7" y="60" fill="#ebedf0" data-count="0" data-date="2018-11-15"/>
          <rect class="day" width="12" height="12" x="-7" y="75" fill="#ebedf0" data-count="0" data-date="2018-11-16"/>
          <rect class="day" width="12" height="12" x="-7" y="90" fill="#ebedf0" data-count="0" data-date="2018-11-17"/>
      </g>
      <g transform="translate(384, 0)">
          <rect class="day" width="12" height="12" x="-8" y="0" fill="#ebedf0" data-count="0" data-date="2018-11-18"/>
          <rect class="day" width="12" height="12" x="-8" y="15" fill="#ebedf0" data-count="0" data-date="2018-11-19"/>
          <rect class="day" width="12" height="12" x="-8" y="30" fill="#ebedf0" data-count="0" data-date="2018-11-20"/>
          <rect class="day" width="12" height="12" x="-8" y="45" fill="#ebedf0" data-count="0" data-date="2018-11-21"/>
          <rect class="day" width="12" height="12" x="-8" y="60" fill="#ebedf0" data-count="0" data-date="2018-11-22"/>
          <rect class="day" width="12" height="12" x="-8" y="75" fill="#ebedf0" data-count="0" data-date="2018-11-23"/>
          <rect class="day" width="12" height="12" x="-8" y="90" fill="#ebedf0" data-count="0" data-date="2018-11-24"/>
      </g>
      <g transform="translate(400, 0)">
          <rect class="day" width="12" height="12" x="-9" y="0" fill="#ebedf0" data-count="0" data-date="2018-11-25"/>
          <rect class="day" width="12" height="12" x="-9" y="15" fill="#ebedf0" data-count="0" data-date="2018-11-26"/>
          <rect class="day" width="12" height="12" x="-9" y="30" fill="#ebedf0" data-count="0" data-date="2018-11-27"/>
          <rect class="day" width="12" height="12" x="-9" y="45" fill="#ebedf0" data-count="0" data-date="2018-11-28"/>
          <rect class="day" width="12" height="12" x="-9" y="60" fill="#ebedf0" data-count="0" data-date="2018-11-29"/>
          <rect class="day" width="12" height="12" x="-9" y="75" fill="#ebedf0" data-count="0" data-date="2018-11-30"/>
          <rect class="day" width="12" height="12" x="-9" y="90" fill="#ebedf0" data-count="0" data-date="2018-12-01"/>
      </g>
      <g transform="translate(416, 0)">
          <rect class="day" width="12" height="12" x="-10" y="0" fill="#ebedf0" data-count="0" data-date="2018-12-02"/>
          <rect class="day" width="12" height="12" x="-10" y="15" fill="#ebedf0" data-count="0" data-date="2018-12-03"/>
          <rect class="day" width="12" height="12" x="-10" y="30" fill="#ebedf0" data-count="0" data-date="2018-12-04"/>
          <rect class="day" width="12" height="12" x="-10" y="45" fill="#ebedf0" data-count="0" data-date="2018-12-05"/>
          <rect class="day" width="12" height="12" x="-10" y="60" fill="#ebedf0" data-count="0" data-date="2018-12-06"/>
          <rect class="day" width="12" height="12" x="-10" y="75" fill="#ebedf0" data-count="0" data-date="2018-12-07"/>
          <rect class="day" width="12" height="12" x="-10" y="90" fill="#196127" data-count="3" data-date="2018-12-08"/>
      </g>
      <g transform="translate(432, 0)">
          <rect class="day" width="12" height="12" x="-11" y="0" fill="#7bc96f" data-count="1" data-date="2018-12-09"/>
          <rect class="day" width="12" height="12" x="-11" y="15" fill="#ebedf0" data-count="0" data-date="2018-12-10"/>
          <rect class="day" width="12" height="12" x="-11" y="30" fill="#ebedf0" data-count="0" data-date="2018-12-11"/>
          <rect class="day" width="12" height="12" x="-11" y="45" fill="#ebedf0" data-count="0" data-date="2018-12-12"/>
          <rect class="day" width="12" height="12" x="-11" y="60" fill="#ebedf0" data-count="0" data-date="2018-12-13"/>
          <rect class="day" width="12" height="12" x="-11" y="75" fill="#ebedf0" data-count="0" data-date="2018-12-14"/>
          <rect class="day" width="12" height="12" x="-11" y="90" fill="#ebedf0" data-count="0" data-date="2018-12-15"/>
      </g>
      <g transform="translate(448, 0)">
          <rect class="day" width="12" height="12" x="-12" y="0" fill="#ebedf0" data-count="0" data-date="2018-12-16"/>
          <rect class="day" width="12" height="12" x="-12" y="15" fill="#ebedf0" data-count="0" data-date="2018-12-17"/>
          <rect class="day" width="12" height="12" x="-12" y="30" fill="#ebedf0" data-count="0" data-date="2018-12-18"/>
          <rect class="day" width="12" height="12" x="-12" y="45" fill="#ebedf0" data-count="0" data-date="2018-12-19"/>
          <rect class="day" width="12" height="12" x="-12" y="60" fill="#ebedf0" data-count="0" data-date="2018-12-20"/>
          <rect class="day" width="12" height="12" x="-12" y="75" fill="#ebedf0" data-count="0" data-date="2018-12-21"/>
          <rect class="day" width="12" height="12" x="-12" y="90" fill="#ebedf0" data-count="0" data-date="2018-12-22"/>
      </g>
      <g transform="translate(464, 0)">
          <rect class="day" width="12" height="12" x="-13" y="0" fill="#ebedf0" data-count="0" data-date="2018-12-23"/>
          <rect class="day" width="12" height="12" x="-13" y="15" fill="#ebedf0" data-count="0" data-date="2018-12-24"/>
          <rect class="day" width="12" height="12" x="-13" y="30" fill="#ebedf0" data-count="0" data-date="2018-12-25"/>
          <rect class="day" width="12" height="12" x="-13" y="45" fill="#ebedf0" data-count="0" data-date="2018-12-26"/>
          <rect class="day" width="12" height="12" x="-13" y="60" fill="#ebedf0" data-count="0" data-date="2018-12-27"/>
          <rect class="day" width="12" height="12" x="-13" y="75" fill="#ebedf0" data-count="0" data-date="2018-12-28"/>
          <rect class="day" width="12" height="12" x="-13" y="90" fill="#ebedf0" data-count="0" data-date="2018-12-29"/>
      </g>
      <g transform="translate(480, 0)">
          <rect class="day" width="12" height="12" x="-14" y="0" fill="#ebedf0" data-count="0" data-date="2018-12-30"/>
          <rect class="day" width="12" height="12" x="-14" y="15" fill="#ebedf0" data-count="0" data-date="2018-12-31"/>
          <rect class="day" width="12" height="12" x="-14" y="30" fill="#ebedf0" data-count="0" data-date="2019-01-01"/>
          <rect class="day" width="12" height="12" x="-14" y="45" fill="#ebedf0" data-count="0" data-date="2019-01-02"/>
          <rect class="day" width="12" height="12" x="-14" y="60" fill="#ebedf0" data-count="0" data-date="2019-01-03"/>
          <rect class="day" width="12" height="12" x="-14" y="75" fill="#ebedf0" data-count="0" data-date="2019-01-04"/>
          <rect class="day" width="12" height="12" x="-14" y="90" fill="#ebedf0" data-count="0" data-date="2019-01-05"/>
      </g>
      <g transform="translate(496, 0)">
          <rect class="day" width="12" height="12" x="-15" y="0" fill="#ebedf0" data-count="0" data-date="2019-01-06"/>
          <rect class="day" width="12" height="12" x="-15" y="15" fill="#ebedf0" data-count="0" data-date="2019-01-07"/>
          <rect class="day" width="12" height="12" x="-15" y="30" fill="#ebedf0" data-count="0" data-date="2019-01-08"/>
          <rect class="day" width="12" height="12" x="-15" y="45" fill="#ebedf0" data-count="0" data-date="2019-01-09"/>
          <rect class="day" width="12" height="12" x="-15" y="60" fill="#ebedf0" data-count="0" data-date="2019-01-10"/>
          <rect class="day" width="12" height="12" x="-15" y="75" fill="#ebedf0" data-count="0" data-date="2019-01-11"/>
          <rect class="day" width="12" height="12" x="-15" y="90" fill="#ebedf0" data-count="0" data-date="2019-01-12"/>
      </g>
      <g transform="translate(512, 0)">
          <rect class="day" width="12" height="12" x="-16" y="0" fill="#ebedf0" data-count="0" data-date="2019-01-13"/>
          <rect class="day" width="12" height="12" x="-16" y="15" fill="#ebedf0" data-count="0" data-date="2019-01-14"/>
          <rect class="day" width="12" height="12" x="-16" y="30" fill="#ebedf0" data-count="0" data-date="2019-01-15"/>
          <rect class="day" width="12" height="12" x="-16" y="45" fill="#ebedf0" data-count="0" data-date="2019-01-16"/>
          <rect class="day" width="12" height="12" x="-16" y="60" fill="#ebedf0" data-count="0" data-date="2019-01-17"/>
          <rect class="day" width="12" height="12" x="-16" y="75" fill="#ebedf0" data-count="0" data-date="2019-01-18"/>
          <rect class="day" width="12" height="12" x="-16" y="90" fill="#ebedf0" data-count="0" data-date="2019-01-19"/>
      </g>
      <g transform="translate(528, 0)">
          <rect class="day" width="12" height="12" x="-17" y="0" fill="#ebedf0" data-count="0" data-date="2019-01-20"/>
          <rect class="day" width="12" height="12" x="-17" y="15" fill="#ebedf0" data-count="0" data-date="2019-01-21"/>
          <rect class="day" width="12" height="12" x="-17" y="30" fill="#ebedf0" data-count="0" data-date="2019-01-22"/>
          <rect class="day" width="12" height="12" x="-17" y="45" fill="#ebedf0" data-count="0" data-date="2019-01-23"/>
          <rect class="day" width="12" height="12" x="-17" y="60" fill="#ebedf0" data-count="0" data-date="2019-01-24"/>
          <rect class="day" width="12" height="12" x="-17" y="75" fill="#ebedf0" data-count="0" data-date="2019-01-25"/>
          <rect class="day" width="12" height="12" x="-17" y="90" fill="#ebedf0" data-count="0" data-date="2019-01-26"/>
      </g>
      <g transform="translate(544, 0)">
          <rect class="day" width="12" height="12" x="-18" y="0" fill="#ebedf0" data-count="0" data-date="2019-01-27"/>
          <rect class="day" width="12" height="12" x="-18" y="15" fill="#ebedf0" data-count="0" data-date="2019-01-28"/>
          <rect class="day" width="12" height="12" x="-18" y="30" fill="#ebedf0" data-count="0" data-date="2019-01-29"/>
          <rect class="day" width="12" height="12" x="-18" y="45" fill="#ebedf0" data-count="0" data-date="2019-01-30"/>
          <rect class="day" width="12" height="12" x="-18" y="60" fill="#ebedf0" data-count="0" data-date="2019-01-31"/>
          <rect class="day" width="12" height="12" x="-18" y="75" fill="#ebedf0" data-count="0" data-date="2019-02-01"/>
          <rect class="day" width="12" height="12" x="-18" y="90" fill="#ebedf0" data-count="0" data-date="2019-02-02"/>
      </g>
      <g transform="translate(560, 0)">
          <rect class="day" width="12" height="12" x="-19" y="0" fill="#ebedf0" data-count="0" data-date="2019-02-03"/>
          <rect class="day" width="12" height="12" x="-19" y="15" fill="#ebedf0" data-count="0" data-date="2019-02-04"/>
          <rect class="day" width="12" height="12" x="-19" y="30" fill="#ebedf0" data-count="0" data-date="2019-02-05"/>
          <rect class="day" width="12" height="12" x="-19" y="45" fill="#ebedf0" data-count="0" data-date="2019-02-06"/>
          <rect class="day" width="12" height="12" x="-19" y="60" fill="#ebedf0" data-count="0" data-date="2019-02-07"/>
          <rect class="day" width="12" height="12" x="-19" y="75" fill="#ebedf0" data-count="0" data-date="2019-02-08"/>
          <rect class="day" width="12" height="12" x="-19" y="90" fill="#ebedf0" data-count="0" data-date="2019-02-09"/>
      </g>
      <g transform="translate(576, 0)">
          <rect class="day" width="12" height="12" x="-20" y="0" fill="#ebedf0" data-count="0" data-date="2019-02-10"/>
          <rect class="day" width="12" height="12" x="-20" y="15" fill="#ebedf0" data-count="0" data-date="2019-02-11"/>
          <rect class="day" width="12" height="12" x="-20" y="30" fill="#ebedf0" data-count="0" data-date="2019-02-12"/>
          <rect class="day" width="12" height="12" x="-20" y="45" fill="#ebedf0" data-count="0" data-date="2019-02-13"/>
          <rect class="day" width="12" height="12" x="-20" y="60" fill="#ebedf0" data-count="0" data-date="2019-02-14"/>
          <rect class="day" width="12" height="12" x="-20" y="75" fill="#ebedf0" data-count="0" data-date="2019-02-15"/>
          <rect class="day" width="12" height="12" x="-20" y="90" fill="#ebedf0" data-count="0" data-date="2019-02-16"/>
      </g>
      <g transform="translate(592, 0)">
          <rect class="day" width="12" height="12" x="-21" y="0" fill="#ebedf0" data-count="0" data-date="2019-02-17"/>
          <rect class="day" width="12" height="12" x="-21" y="15" fill="#ebedf0" data-count="0" data-date="2019-02-18"/>
          <rect class="day" width="12" height="12" x="-21" y="30" fill="#ebedf0" data-count="0" data-date="2019-02-19"/>
          <rect class="day" width="12" height="12" x="-21" y="45" fill="#ebedf0" data-count="0" data-date="2019-02-20"/>
          <rect class="day" width="12" height="12" x="-21" y="60" fill="#ebedf0" data-count="0" data-date="2019-02-21"/>
          <rect class="day" width="12" height="12" x="-21" y="75" fill="#ebedf0" data-count="0" data-date="2019-02-22"/>
          <rect class="day" width="12" height="12" x="-21" y="90" fill="#ebedf0" data-count="0" data-date="2019-02-23"/>
      </g>
      <g transform="translate(608, 0)">
          <rect class="day" width="12" height="12" x="-22" y="0" fill="#ebedf0" data-count="0" data-date="2019-02-24"/>
          <rect class="day" width="12" height="12" x="-22" y="15" fill="#ebedf0" data-count="0" data-date="2019-02-25"/>
          <rect class="day" width="12" height="12" x="-22" y="30" fill="#ebedf0" data-count="0" data-date="2019-02-26"/>
          <rect class="day" width="12" height="12" x="-22" y="45" fill="#ebedf0" data-count="0" data-date="2019-02-27"/>
          <rect class="day" width="12" height="12" x="-22" y="60" fill="#ebedf0" data-count="0" data-date="2019-02-28"/>
          <rect class="day" width="12" height="12" x="-22" y="75" fill="#ebedf0" data-count="0" data-date="2019-03-01"/>
          <rect class="day" width="12" height="12" x="-22" y="90" fill="#ebedf0" data-count="0" data-date="2019-03-02"/>
      </g>
      <g transform="translate(624, 0)">
          <rect class="day" width="12" height="12" x="-23" y="0" fill="#ebedf0" data-count="0" data-date="2019-03-03"/>
          <rect class="day" width="12" height="12" x="-23" y="15" fill="#ebedf0" data-count="0" data-date="2019-03-04"/>
          <rect class="day" width="12" height="12" x="-23" y="30" fill="#ebedf0" data-count="0" data-date="2019-03-05"/>
          <rect class="day" width="12" height="12" x="-23" y="45" fill="#ebedf0" data-count="0" data-date="2019-03-06"/>
          <rect class="day" width="12" height="12" x="-23" y="60" fill="#ebedf0" data-count="0" data-date="2019-03-07"/>
          <rect class="day" width="12" height="12" x="-23" y="75" fill="#ebedf0" data-count="0" data-date="2019-03-08"/>
          <rect class="day" width="12" height="12" x="-23" y="90" fill="#ebedf0" data-count="0" data-date="2019-03-09"/>
      </g>
      <g transform="translate(640, 0)">
          <rect class="day" width="12" height="12" x="-24" y="0" fill="#ebedf0" data-count="0" data-date="2019-03-10"/>
          <rect class="day" width="12" height="12" x="-24" y="15" fill="#ebedf0" data-count="0" data-date="2019-03-11"/>
          <rect class="day" width="12" height="12" x="-24" y="30" fill="#ebedf0" data-count="0" data-date="2019-03-12"/>
          <rect class="day" width="12" height="12" x="-24" y="45" fill="#ebedf0" data-count="0" data-date="2019-03-13"/>
          <rect class="day" width="12" height="12" x="-24" y="60" fill="#ebedf0" data-count="0" data-date="2019-03-14"/>
          <rect class="day" width="12" height="12" x="-24" y="75" fill="#ebedf0" data-count="0" data-date="2019-03-15"/>
          <rect class="day" width="12" height="12" x="-24" y="90" fill="#ebedf0" data-count="0" data-date="2019-03-16"/>
      </g>
      <g transform="translate(656, 0)">
          <rect class="day" width="12" height="12" x="-25" y="0" fill="#ebedf0" data-count="0" data-date="2019-03-17"/>
          <rect class="day" width="12" height="12" x="-25" y="15" fill="#ebedf0" data-count="0" data-date="2019-03-18"/>
          <rect class="day" width="12" height="12" x="-25" y="30" fill="#ebedf0" data-count="0" data-date="2019-03-19"/>
          <rect class="day" width="12" height="12" x="-25" y="45" fill="#ebedf0" data-count="0" data-date="2019-03-20"/>
          <rect class="day" width="12" height="12" x="-25" y="60" fill="#ebedf0" data-count="0" data-date="2019-03-21"/>
          <rect class="day" width="12" height="12" x="-25" y="75" fill="#ebedf0" data-count="0" data-date="2019-03-22"/>
          <rect class="day" width="12" height="12" x="-25" y="90" fill="#ebedf0" data-count="0" data-date="2019-03-23"/>
      </g>
      <g transform="translate(672, 0)">
          <rect class="day" width="12" height="12" x="-26" y="0" fill="#ebedf0" data-count="0" data-date="2019-03-24"/>
          <rect class="day" width="12" height="12" x="-26" y="15" fill="#ebedf0" data-count="0" data-date="2019-03-25"/>
          <rect class="day" width="12" height="12" x="-26" y="30" fill="#ebedf0" data-count="0" data-date="2019-03-26"/>
          <rect class="day" width="12" height="12" x="-26" y="45" fill="#ebedf0" data-count="0" data-date="2019-03-27"/>
          <rect class="day" width="12" height="12" x="-26" y="60" fill="#ebedf0" data-count="0" data-date="2019-03-28"/>
          <rect class="day" width="12" height="12" x="-26" y="75" fill="#ebedf0" data-count="0" data-date="2019-03-29"/>
          <rect class="day" width="12" height="12" x="-26" y="90" fill="#ebedf0" data-count="0" data-date="2019-03-30"/>
      </g>
      <g transform="translate(688, 0)">
          <rect class="day" width="12" height="12" x="-27" y="0" fill="#ebedf0" data-count="0" data-date="2019-03-31"/>
          <rect class="day" width="12" height="12" x="-27" y="15" fill="#ebedf0" data-count="0" data-date="2019-04-01"/>
          <rect class="day" width="12" height="12" x="-27" y="30" fill="#ebedf0" data-count="0" data-date="2019-04-02"/>
          <rect class="day" width="12" height="12" x="-27" y="45" fill="#ebedf0" data-count="0" data-date="2019-04-03"/>
          <rect class="day" width="12" height="12" x="-27" y="60" fill="#ebedf0" data-count="0" data-date="2019-04-04"/>
          <rect class="day" width="12" height="12" x="-27" y="75" fill="#ebedf0" data-count="0" data-date="2019-04-05"/>
          <rect class="day" width="12" height="12" x="-27" y="90" fill="#ebedf0" data-count="0" data-date="2019-04-06"/>
      </g>
      <g transform="translate(704, 0)">
          <rect class="day" width="12" height="12" x="-28" y="0" fill="#ebedf0" data-count="0" data-date="2019-04-07"/>
          <rect class="day" width="12" height="12" x="-28" y="15" fill="#ebedf0" data-count="0" data-date="2019-04-08"/>
          <rect class="day" width="12" height="12" x="-28" y="30" fill="#ebedf0" data-count="0" data-date="2019-04-09"/>
          <rect class="day" width="12" height="12" x="-28" y="45" fill="#ebedf0" data-count="0" data-date="2019-04-10"/>
          <rect class="day" width="12" height="12" x="-28" y="60" fill="#ebedf0" data-count="0" data-date="2019-04-11"/>
          <rect class="day" width="12" height="12" x="-28" y="75" fill="#ebedf0" data-count="0" data-date="2019-04-12"/>
          <rect class="day" width="12" height="12" x="-28" y="90" fill="#ebedf0" data-count="0" data-date="2019-04-13"/>
      </g>
      <g transform="translate(720, 0)">
          <rect class="day" width="12" height="12" x="-29" y="0" fill="#ebedf0" data-count="0" data-date="2019-04-14"/>
          <rect class="day" width="12" height="12" x="-29" y="15" fill="#ebedf0" data-count="0" data-date="2019-04-15"/>
          <rect class="day" width="12" height="12" x="-29" y="30" fill="#ebedf0" data-count="0" data-date="2019-04-16"/>
          <rect class="day" width="12" height="12" x="-29" y="45" fill="#ebedf0" data-count="0" data-date="2019-04-17"/>
          <rect class="day" width="12" height="12" x="-29" y="60" fill="#ebedf0" data-count="0" data-date="2019-04-18"/>
          <rect class="day" width="12" height="12" x="-29" y="75" fill="#ebedf0" data-count="0" data-date="2019-04-19"/>
          <rect class="day" width="12" height="12" x="-29" y="90" fill="#ebedf0" data-count="0" data-date="2019-04-20"/>
      </g>
      <g transform="translate(736, 0)">
          <rect class="day" width="12" height="12" x="-30" y="0" fill="#ebedf0" data-count="0" data-date="2019-04-21"/>
          <rect class="day" width="12" height="12" x="-30" y="15" fill="#ebedf0" data-count="0" data-date="2019-04-22"/>
          <rect class="day" width="12" height="12" x="-30" y="30" fill="#ebedf0" data-count="0" data-date="2019-04-23"/>
          <rect class="day" width="12" height="12" x="-30" y="45" fill="#ebedf0" data-count="0" data-date="2019-04-24"/>
          <rect class="day" width="12" height="12" x="-30" y="60" fill="#ebedf0" data-count="0" data-date="2019-04-25"/>
          <rect class="day" width="12" height="12" x="-30" y="75" fill="#ebedf0" data-count="0" data-date="2019-04-26"/>
          <rect class="day" width="12" height="12" x="-30" y="90" fill="#ebedf0" data-count="0" data-date="2019-04-27"/>
      </g>
      <g transform="translate(752, 0)">
          <rect class="day" width="12" height="12" x="-31" y="0" fill="#ebedf0" data-count="0" data-date="2019-04-28"/>
          <rect class="day" width="12" height="12" x="-31" y="15" fill="#ebedf0" data-count="0" data-date="2019-04-29"/>
          <rect class="day" width="12" height="12" x="-31" y="30" fill="#ebedf0" data-count="0" data-date="2019-04-30"/>
          <rect class="day" width="12" height="12" x="-31" y="45" fill="#ebedf0" data-count="0" data-date="2019-05-01"/>
          <rect class="day" width="12" height="12" x="-31" y="60" fill="#ebedf0" data-count="0" data-date="2019-05-02"/>
          <rect class="day" width="12" height="12" x="-31" y="75" fill="#ebedf0" data-count="0" data-date="2019-05-03"/>
          <rect class="day" width="12" height="12" x="-31" y="90" fill="#ebedf0" data-count="0" data-date="2019-05-04"/>
      </g>
      <g transform="translate(768, 0)">
          <rect class="day" width="12" height="12" x="-32" y="0" fill="#ebedf0" data-count="0" data-date="2019-05-05"/>
          <rect class="day" width="12" height="12" x="-32" y="15" fill="#ebedf0" data-count="0" data-date="2019-05-06"/>
          <rect class="day" width="12" height="12" x="-32" y="30" fill="#ebedf0" data-count="0" data-date="2019-05-07"/>
          <rect class="day" width="12" height="12" x="-32" y="45" fill="#ebedf0" data-count="0" data-date="2019-05-08"/>
          <rect class="day" width="12" height="12" x="-32" y="60" fill="#ebedf0" data-count="0" data-date="2019-05-09"/>
          <rect class="day" width="12" height="12" x="-32" y="75" fill="#ebedf0" data-count="0" data-date="2019-05-10"/>
          <rect class="day" width="12" height="12" x="-32" y="90" fill="#ebedf0" data-count="0" data-date="2019-05-11"/>
      </g>
      <g transform="translate(784, 0)">
          <rect class="day" width="12" height="12" x="-33" y="0" fill="#ebedf0" data-count="0" data-date="2019-05-12"/>
          <rect class="day" width="12" height="12" x="-33" y="15" fill="#ebedf0" data-count="0" data-date="2019-05-13"/>
          <rect class="day" width="12" height="12" x="-33" y="30" fill="#ebedf0" data-count="0" data-date="2019-05-14"/>
          <rect class="day" width="12" height="12" x="-33" y="45" fill="#ebedf0" data-count="0" data-date="2019-05-15"/>
          <rect class="day" width="12" height="12" x="-33" y="60" fill="#ebedf0" data-count="0" data-date="2019-05-16"/>
          <rect class="day" width="12" height="12" x="-33" y="75" fill="#ebedf0" data-count="0" data-date="2019-05-17"/>
          <rect class="day" width="12" height="12" x="-33" y="90" fill="#ebedf0" data-count="0" data-date="2019-05-18"/>
      </g>
      <g transform="translate(800, 0)">
          <rect class="day" width="12" height="12" x="-34" y="0" fill="#ebedf0" data-count="0" data-date="2019-05-19"/>
          <rect class="day" width="12" height="12" x="-34" y="15" fill="#ebedf0" data-count="0" data-date="2019-05-20"/>
          <rect class="day" width="12" height="12" x="-34" y="30" fill="#ebedf0" data-count="0" data-date="2019-05-21"/>
          <rect class="day" width="12" height="12" x="-34" y="45" fill="#ebedf0" data-count="0" data-date="2019-05-22"/>
          <rect class="day" width="12" height="12" x="-34" y="60" fill="#ebedf0" data-count="0" data-date="2019-05-23"/>
          <rect class="day" width="12" height="12" x="-34" y="75" fill="#ebedf0" data-count="0" data-date="2019-05-24"/>
          <rect class="day" width="12" height="12" x="-34" y="90" fill="#ebedf0" data-count="0" data-date="2019-05-25"/>
      </g>
      <g transform="translate(816, 0)">
          <rect class="day" width="12" height="12" x="-35" y="0" fill="#ebedf0" data-count="0" data-date="2019-05-26"/>
          <rect class="day" width="12" height="12" x="-35" y="15" fill="#ebedf0" data-count="0" data-date="2019-05-27"/>
          <rect class="day" width="12" height="12" x="-35" y="30" fill="#ebedf0" data-count="0" data-date="2019-05-28"/>
          <rect class="day" width="12" height="12" x="-35" y="45" fill="#ebedf0" data-count="0" data-date="2019-05-29"/>
          <rect class="day" width="12" height="12" x="-35" y="60" fill="#ebedf0" data-count="0" data-date="2019-05-30"/>
          <rect class="day" width="12" height="12" x="-35" y="75" fill="#ebedf0" data-count="0" data-date="2019-05-31"/>
          <rect class="day" width="12" height="12" x="-35" y="90" fill="#ebedf0" data-count="0" data-date="2019-06-01"/>
      </g>
      <g transform="translate(832, 0)">
          <rect class="day" width="12" height="12" x="-36" y="0" fill="#ebedf0" data-count="0" data-date="2019-06-02"/>
          <rect class="day" width="12" height="12" x="-36" y="15" fill="#ebedf0" data-count="0" data-date="2019-06-03"/>
          <rect class="day" width="12" height="12" x="-36" y="30" fill="#ebedf0" data-count="0" data-date="2019-06-04"/>
          <rect class="day" width="12" height="12" x="-36" y="45" fill="#ebedf0" data-count="0" data-date="2019-06-05"/>
          <rect class="day" width="12" height="12" x="-36" y="60" fill="#ebedf0" data-count="0" data-date="2019-06-06"/>
          <rect class="day" width="12" height="12" x="-36" y="75" fill="#ebedf0" data-count="0" data-date="2019-06-07"/>
          <rect class="day" width="12" height="12" x="-36" y="90" fill="#ebedf0" data-count="0" data-date="2019-06-08"/>
      </g>
      <text x="16" y="-9" class="month">Jun</text>
      <text x="76" y="-9" class="month">Jul</text>
      <text x="151" y="-9" class="month">Aug</text>
      <text x="211" y="-9" class="month">Sep</text>
      <text x="286" y="-9" class="month">Oct</text>
      <text x="346" y="-9" class="month">Nov</text>
      <text x="406" y="-9" class="month">Dec</text>
      <text x="481" y="-9" class="month">Jan</text>
      <text x="541" y="-9" class="month">Feb</text>
      <text x="601" y="-9" class="month">Mar</text>
      <text x="676" y="-9" class="month">Apr</text>
      <text x="736" y="-9" class="month">May</text>
    <text text-anchor="start" class="wday" dx="-10" dy="8" style="display: none;">Sun</text>
    <text text-anchor="start" class="wday" dx="-10" dy="25">Mon</text>
    <text text-anchor="start" class="wday" dx="-10" dy="32" style="display: none;">Tue</text>
    <text text-anchor="start" class="wday" dx="-10" dy="56">Wed</text>
    <text text-anchor="start" class="wday" dx="-10" dy="57" style="display: none;">Thu</text>
    <text text-anchor="start" class="wday" dx="-10" dy="85">Fri</text>
    <text text-anchor="start" class="wday" dx="-10" dy="81" style="display: none;">Sat</text>
</g></svg>